<svg width="200" height="200" viewBox="0 0 200 200" fill="none" xmlns="http://www.w3.org/2000/svg">
  <defs>
    <linearGradient id="metal-grad" x1="0%" y1="0%" x2="100%" y2="20%">
      <stop offset="0%" stop-color="#f0f2f5"/>
      <stop offset="50%" stop-color="#9ca3b0"/>
      <stop offset="100%" stop-color="#e07048"/>
    </linearGradient>
    <linearGradient id="metal-grad-dark" x1="0%" y1="0%" x2="100%" y2="30%">
      <stop offset="0%" stop-color="#d0d4dc"/>
      <stop offset="60%" stop-color="#6b7280"/>
      <stop offset="100%" stop-color="#c45530"/>
    </linearGradient>
  </defs>

  <!-- V Logo -->
  <g transform="translate(40, 40)">
    <g transform="skewX(-12)">
      <path d="M 100 0 L 60 120 L 105 30 L 100 0 Z" fill="url(#metal-grad-dark)" stroke="#4b5563" stroke-width="0.5"/>
      <path d="M 30 0 L 60 120 L 80 20 L 30 0 Z" fill="url(#metal-grad)" stroke-width="0.5" stroke-opacity="0.4"/>
      <path d="M 30 0 L 60 120" stroke="#f0f2f5" stroke-width="0.5" stroke-linecap="round" opacity="0.4"/>
    </g>
  </g>

  <!-- Musea accent: gallery/museum with frames -->
  <g transform="translate(110, 120)">
    <!-- Museum building columns -->
    <line x1="5" y1="10" x2="5" y2="50" stroke="#e07048" stroke-width="3" stroke-linecap="round"/>
    <line x1="60" y1="10" x2="60" y2="50" stroke="#e07048" stroke-width="3" stroke-linecap="round"/>
    <!-- Pediment/roof -->
    <path d="M 0 10 L 32.5 0 L 65 10" fill="none" stroke="#e07048" stroke-width="2.5" stroke-linecap="round" stroke-linejoin="round"/>
    <!-- Picture frames inside -->
    <rect x="15" y="18" width="14" height="12" rx="1" fill="none" stroke="#e07048" stroke-width="1.5" opacity="0.7"/>
    <rect x="36" y="18" width="14" height="12" rx="1" fill="none" stroke="#e07048" stroke-width="1.5" opacity="0.7"/>
    <rect x="23" y="35" width="18" height="12" rx="1" fill="none" stroke="#e07048" stroke-width="1.5" opacity="0.6"/>
  </g>
</svg>
