<svg width="1100" height="540" viewBox="0 0 1100 540" fill="none" xmlns="http://www.w3.org/2000/svg">
  <defs>
    <marker id="arrow" markerWidth="8" markerHeight="6" refX="7" refY="3" orient="auto">
      <path d="M0,0 L8,3 L0,6 L2,3 Z" fill="#121212"/>
    </marker>
  </defs>

  <!-- Background -->
  <rect width="1100" height="540" fill="#E6E2D6"/>

  <!-- APPLICATIONS -->
  <g>
    <rect x="20" y="20" width="150" height="440" rx="10" fill="none" stroke="#121212" stroke-width="1.5"/>
    <text x="95" y="46" text-anchor="middle" fill="#121212" font-family="'Helvetica Neue', Helvetica, sans-serif" font-size="9" font-weight="500" letter-spacing="2">APPLICATIONS</text>
    <rect x="35" y="60" width="120" height="40" rx="6" fill="none" stroke="#121212" stroke-width="0.75"/>
    <text x="95" y="84" text-anchor="middle" fill="#121212" font-family="'Helvetica Neue', Helvetica, monospace" font-size="11" font-weight="400">Vite Plugin</text>
    <rect x="35" y="110" width="120" height="40" rx="6" fill="none" stroke="#121212" stroke-width="0.75"/>
    <text x="95" y="134" text-anchor="middle" fill="#121212" font-family="'Helvetica Neue', Helvetica, monospace" font-size="11" font-weight="400">CLI (vize)</text>
    <rect x="35" y="160" width="120" height="40" rx="6" fill="none" stroke="#121212" stroke-width="0.75"/>
    <text x="95" y="184" text-anchor="middle" fill="#121212" font-family="'Helvetica Neue', Helvetica, monospace" font-size="11" font-weight="400">LSP (maestro)</text>
    <rect x="35" y="210" width="120" height="40" rx="6" fill="none" stroke="#121212" stroke-width="0.75"/>
    <text x="95" y="234" text-anchor="middle" fill="#121212" font-family="'Helvetica Neue', Helvetica, monospace" font-size="11" font-weight="400">Gallery (musea)</text>
    <rect x="35" y="260" width="120" height="40" rx="6" fill="none" stroke="#121212" stroke-width="0.75"/>
    <text x="95" y="284" text-anchor="middle" fill="#121212" font-family="'Helvetica Neue', Helvetica, monospace" font-size="11" font-weight="400">Playground</text>
  </g>

  <!-- TOOLS -->
  <g>
    <rect x="190" y="20" width="170" height="440" rx="10" fill="none" stroke="#121212" stroke-width="1.5"/>
    <text x="275" y="46" text-anchor="middle" fill="#121212" font-family="'Helvetica Neue', Helvetica, sans-serif" font-size="9" font-weight="500" letter-spacing="2">TOOLS</text>
    <rect x="205" y="60" width="140" height="40" rx="6" fill="none" stroke="#121212" stroke-width="0.75"/>
    <text x="275" y="84" text-anchor="middle" fill="#121212" font-family="'Helvetica Neue', Helvetica, monospace" font-size="11" font-weight="400">Linter (patina)</text>
    <rect x="205" y="110" width="140" height="40" rx="6" fill="none" stroke="#121212" stroke-width="0.75"/>
    <text x="275" y="134" text-anchor="middle" fill="#121212" font-family="'Helvetica Neue', Helvetica, monospace" font-size="11" font-weight="400">Formatter (glyph)</text>
    <rect x="205" y="160" width="140" height="40" rx="6" fill="none" stroke="#121212" stroke-width="0.75"/>
    <text x="275" y="184" text-anchor="middle" fill="#121212" font-family="'Helvetica Neue', Helvetica, monospace" font-size="11" font-weight="400">TypeCheck (canon)</text>
  </g>

  <!-- COMPILER (ATELIER) -->
  <g>
    <rect x="380" y="20" width="310" height="260" rx="10" fill="none" stroke="#121212" stroke-width="1.5"/>
    <text x="535" y="46" text-anchor="middle" fill="#121212" font-family="'Helvetica Neue', Helvetica, sans-serif" font-size="9" font-weight="500" letter-spacing="2">COMPILER (ATELIER)</text>
    <rect x="395" y="60" width="280" height="42" rx="6" fill="none" stroke="#121212" stroke-width="0.75"/>
    <text x="535" y="86" text-anchor="middle" fill="#121212" font-family="'Helvetica Neue', Helvetica, monospace" font-size="12" font-weight="400">atelier_sfc</text>
    <rect x="395" y="112" width="130" height="42" rx="6" fill="none" stroke="#121212" stroke-width="0.75"/>
    <text x="460" y="138" text-anchor="middle" fill="#121212" font-family="'Helvetica Neue', Helvetica, monospace" font-size="11" font-weight="400">atelier_dom</text>
    <rect x="545" y="112" width="130" height="42" rx="6" fill="none" stroke="#121212" stroke-width="0.75"/>
    <text x="610" y="138" text-anchor="middle" fill="#121212" font-family="'Helvetica Neue', Helvetica, monospace" font-size="11" font-weight="400">atelier_vapor</text>
    <rect x="395" y="164" width="280" height="42" rx="6" fill="none" stroke="#121212" stroke-width="0.75"/>
    <text x="535" y="190" text-anchor="middle" fill="#121212" font-family="'Helvetica Neue', Helvetica, monospace" font-size="12" font-weight="400">atelier_core</text>
    <path d="M535 102 L535 112" stroke="#121212" stroke-width="1"/>
    <path d="M460 154 L460 164" stroke="#121212" stroke-width="1"/>
    <path d="M610 154 L610 164" stroke="#121212" stroke-width="1"/>
  </g>

  <!-- SEMANTIC (CROQUIS) -->
  <g>
    <rect x="380" y="300" width="310" height="160" rx="10" fill="none" stroke="#121212" stroke-width="1.5"/>
    <text x="535" y="326" text-anchor="middle" fill="#121212" font-family="'Helvetica Neue', Helvetica, sans-serif" font-size="9" font-weight="500" letter-spacing="2">SEMANTIC ANALYSIS</text>
    <rect x="395" y="345" width="280" height="95" rx="6" fill="none" stroke="#121212" stroke-width="0.75"/>
    <text x="535" y="385" text-anchor="middle" fill="#121212" font-family="'Helvetica Neue', Helvetica, monospace" font-size="14" font-weight="500">croquis</text>
    <text x="535" y="408" text-anchor="middle" fill="#121212" font-family="'Helvetica Neue', Helvetica, sans-serif" font-size="10">Scopes · Bindings · Macros · CSS</text>
    <text x="535" y="426" text-anchor="middle" fill="#121212" font-family="'Helvetica Neue', Helvetica, sans-serif" font-size="10" font-weight="500">VIR Output</text>
  </g>

  <!-- CORE -->
  <g>
    <rect x="710" y="20" width="170" height="440" rx="10" fill="none" stroke="#121212" stroke-width="1.5"/>
    <text x="795" y="46" text-anchor="middle" fill="#121212" font-family="'Helvetica Neue', Helvetica, sans-serif" font-size="9" font-weight="500" letter-spacing="2">CORE</text>
    <rect x="725" y="60" width="140" height="48" rx="6" fill="none" stroke="#121212" stroke-width="0.75"/>
    <text x="795" y="86" text-anchor="middle" fill="#121212" font-family="'Helvetica Neue', Helvetica, monospace" font-size="11" font-weight="400">armature</text>
    <text x="795" y="100" text-anchor="middle" fill="#121212" font-family="'Helvetica Neue', Helvetica, sans-serif" font-size="8">Parser</text>
    <rect x="725" y="118" width="140" height="48" rx="6" fill="none" stroke="#121212" stroke-width="0.75"/>
    <text x="795" y="144" text-anchor="middle" fill="#121212" font-family="'Helvetica Neue', Helvetica, monospace" font-size="11" font-weight="400">relief</text>
    <text x="795" y="158" text-anchor="middle" fill="#121212" font-family="'Helvetica Neue', Helvetica, sans-serif" font-size="8">AST</text>
    <rect x="725" y="176" width="140" height="48" rx="6" fill="none" stroke="#121212" stroke-width="0.75"/>
    <text x="795" y="202" text-anchor="middle" fill="#121212" font-family="'Helvetica Neue', Helvetica, monospace" font-size="11" font-weight="400">carton</text>
    <text x="795" y="216" text-anchor="middle" fill="#121212" font-family="'Helvetica Neue', Helvetica, sans-serif" font-size="8">Allocator</text>
  </g>

  <!-- BINDINGS -->
  <g>
    <rect x="900" y="20" width="180" height="440" rx="10" fill="none" stroke="#121212" stroke-width="1.5"/>
    <text x="990" y="46" text-anchor="middle" fill="#121212" font-family="'Helvetica Neue', Helvetica, sans-serif" font-size="9" font-weight="500" letter-spacing="2">BINDINGS</text>
    <rect x="915" y="60" width="150" height="78" rx="6" fill="none" stroke="#121212" stroke-width="0.75"/>
    <text x="990" y="93" text-anchor="middle" fill="#121212" font-family="'Helvetica Neue', Helvetica, monospace" font-size="12" font-weight="400">vitrine</text>
    <text x="990" y="113" text-anchor="middle" fill="#121212" font-family="'Helvetica Neue', Helvetica, sans-serif" font-size="9">WASM · Node.js · Napi-rs</text>
  </g>

  <!-- ARROWS -->
  <path d="M170 150 L190 150" stroke="#121212" stroke-width="1" marker-end="url(#arrow)"/>
  <path d="M360 100 L380 100" stroke="#121212" stroke-width="1" marker-end="url(#arrow)"/>
  <path d="M360 150 L370 150 L370 390 L380 390" stroke="#121212" stroke-width="1" marker-end="url(#arrow)"/>
  <path d="M690 150 L710 150" stroke="#121212" stroke-width="1" marker-end="url(#arrow)"/>
  <path d="M690 390 L700 390 L700 150 L710 150" stroke="#121212" stroke-width="1"/>
  <path d="M880 150 L900 150" stroke="#121212" stroke-width="1" marker-end="url(#arrow)"/>
  <path d="M535 280 L535 300" stroke="#121212" stroke-width="1.5" marker-end="url(#arrow)"/>
  <path d="M535 206 L535 280" stroke="#121212" stroke-width="1"/>

  <!-- Labels -->
  <text x="535" y="250" text-anchor="middle" fill="#121212" font-family="'Helvetica Neue', Helvetica, sans-serif" font-size="8">uses</text>
  <text x="550" y="295" text-anchor="start" fill="#121212" font-family="'Helvetica Neue', Helvetica, sans-serif" font-size="8" font-weight="500">semantic</text>
</svg>
