<svg width="200" height="200" viewBox="0 0 200 200" fill="none" xmlns="http://www.w3.org/2000/svg">
  <defs>
    <linearGradient id="metal-grad" x1="0%" y1="0%" x2="100%" y2="20%">
      <stop offset="0%" stop-color="#f0f2f5"/>
      <stop offset="50%" stop-color="#9ca3b0"/>
      <stop offset="100%" stop-color="#e07048"/>
    </linearGradient>
    <linearGradient id="metal-grad-dark" x1="0%" y1="0%" x2="100%" y2="30%">
      <stop offset="0%" stop-color="#d0d4dc"/>
      <stop offset="60%" stop-color="#6b7280"/>
      <stop offset="100%" stop-color="#c45530"/>
    </linearGradient>
  </defs>

  <!-- V Logo -->
  <g transform="translate(40, 40)">
    <g transform="skewX(-12)">
      <path d="M 100 0 L 60 120 L 105 30 L 100 0 Z" fill="url(#metal-grad-dark)" stroke="#4b5563" stroke-width="0.5"/>
      <path d="M 30 0 L 60 120 L 80 20 L 30 0 Z" fill="url(#metal-grad)" stroke-width="0.5" stroke-opacity="0.4"/>
      <path d="M 30 0 L 60 120" stroke="#f0f2f5" stroke-width="0.5" stroke-linecap="round" opacity="0.4"/>
    </g>
  </g>

  <!-- Atelier DOM accent: DOM tree structure -->
  <g transform="translate(115, 125)">
    <circle cx="25" cy="5" r="5" fill="#e07048"/>
    <line x1="25" y1="10" x2="12" y2="25" stroke="#e07048" stroke-width="1.5"/>
    <line x1="25" y1="10" x2="38" y2="25" stroke="#e07048" stroke-width="1.5"/>
    <circle cx="12" cy="28" r="4" fill="#e07048" opacity="0.8"/>
    <circle cx="38" cy="28" r="4" fill="#e07048" opacity="0.8"/>
    <line x1="12" y1="32" x2="5" y2="42" stroke="#e07048" stroke-width="1" opacity="0.6"/>
    <line x1="12" y1="32" x2="19" y2="42" stroke="#e07048" stroke-width="1" opacity="0.6"/>
    <circle cx="5" cy="44" r="3" fill="#e07048" opacity="0.5"/>
    <circle cx="19" cy="44" r="3" fill="#e07048" opacity="0.5"/>
  </g>
</svg>
